<svg id="Group_12" data-name="Group 12" xmlns="http://www.w3.org/2000/svg" xmlns:xlink="http://www.w3.org/1999/xlink" width="200" height="87.839" viewBox="0 0 200 87.839">
  <defs>
    <clipPath id="clip-path">
      <rect id="Rectangle_5" data-name="Rectangle 5" width="200" height="87.839" fill="#fff"/>
    </clipPath>
  </defs>
  <g id="Group_11" data-name="Group 11" clip-path="url(#clip-path)">
    <path id="Path_3" data-name="Path 3" d="M71.659,49.964a21.139,21.139,0,0,0,1.733,8.745,18.68,18.68,0,0,0,4.806,6.54,20.834,20.834,0,0,0,7.209,4.058,28.326,28.326,0,0,0,9.022,1.381,37.084,37.084,0,0,0,10.755-1.381,26.077,26.077,0,0,0,8.115-4.058c1.718-1.283,6.414-5.748,7.064-6.457l5.673-6.224a30.983,30.983,0,0,1,2.706-2.717l-.008-.009a22.649,22.649,0,0,1,2.018-1.611,21.069,21.069,0,0,1,4.53-2.482,11.791,11.791,0,0,1,4.215-.828,7.274,7.274,0,0,1,3.191.63,4.751,4.751,0,0,1,2.01,1.773,5.27,5.27,0,0,1,0,5.279,4.722,4.722,0,0,1-2.01,1.772,7.251,7.251,0,0,1-3.191.632,11.466,11.466,0,0,1-4.57-.985,20.268,20.268,0,0,1-4.215-2.443,16.916,16.916,0,0,1-1.965-1.724c.487.589-3.692,14.186-4.381,16.416l0,0a29.687,29.687,0,0,0,7.052,3.151,30.886,30.886,0,0,0,9.179,1.261,26.833,26.833,0,0,0,11.621-2.443,19.28,19.28,0,0,0,8.155-7.092,20.2,20.2,0,0,0,2.994-11.188,21.126,21.126,0,0,0-1.733-8.745,18.715,18.715,0,0,0-4.806-6.54,20.809,20.809,0,0,0-7.248-4.058,28.466,28.466,0,0,0-8.982-1.381,39.444,39.444,0,0,0-10.165,1.183,27.091,27.091,0,0,0-8.076,3.623,37.822,37.822,0,0,0-5.8,4.843l-.005-.005c-.636.616-1.441,1.344-2.027,1.985l-5.673,6.225a32.405,32.405,0,0,1-2.764,2.78c-.516-.535,3.754-14.334,4.346-16.253-.047-.028-.087-.057-.134-.086a30.749,30.749,0,0,0-6.856-3.033,29.856,29.856,0,0,0-9.022-1.261,26.841,26.841,0,0,0-11.621,2.443,19.315,19.315,0,0,0-8.155,7.092,20.226,20.226,0,0,0-2.994,11.188m17.964,0a5.128,5.128,0,0,1,.67-2.64,4.49,4.49,0,0,1,1.969-1.773,7.485,7.485,0,0,1,3.27-.63,13.4,13.4,0,0,1,6.421,1.773,14.717,14.717,0,0,1,4.141,3.18,31.1,31.1,0,0,1-3.667,2.848,12.6,12.6,0,0,1-6.895,2.284,7.462,7.462,0,0,1-3.27-.632A4.464,4.464,0,0,1,90.294,52.6a5.124,5.124,0,0,1-.67-2.64" transform="translate(-15.482 -6.317)" fill="#fff"/>
    <path id="Path_4" data-name="Path 4" d="M27.713,55.081a9.147,9.147,0,0,0,5.027-1.165,3.777,3.777,0,0,0,1.84-3.188L53.525,56.92a14.788,14.788,0,0,1-4.69,7.02,26.147,26.147,0,0,1-9.044,5,38.054,38.054,0,0,1-12.2,1.839A43.009,43.009,0,0,1,16.83,69.488a27.17,27.17,0,0,1-8.767-3.893A18.19,18.19,0,0,1,0,49.93,18.19,18.19,0,0,1,8.063,34.265a27.2,27.2,0,0,1,8.8-3.893,43.118,43.118,0,0,1,10.73-1.288,41.833,41.833,0,0,1,10.7,1.288,23.856,23.856,0,0,1,8.4,3.954,17.968,17.968,0,0,1,5.456,6.744,22.361,22.361,0,0,1,1.932,9.657H20.6v.061a3.21,3.21,0,0,0,.491,1.717,4.427,4.427,0,0,0,1.38,1.38,6.8,6.8,0,0,0,2.207.889,13.461,13.461,0,0,0,3.035.307M27.59,44.6a10.274,10.274,0,0,0-4.966,1.073A3.327,3.327,0,0,0,20.662,48.7v.122H34.4c.041,0,.061-.009.061-.031V48.7a3.043,3.043,0,0,0-.521-1.747A4.225,4.225,0,0,0,32.5,45.669a7.806,7.806,0,0,0-2.177-.8A12.7,12.7,0,0,0,27.59,44.6" transform="translate(0 -6.284)" fill="#fff"/>
    <path id="Path_5" data-name="Path 5" d="M203.892,30.1a55.385,55.385,0,0,1,10.514-1.012,49.33,49.33,0,0,1,9.933.982,31.266,31.266,0,0,1,8.553,3A17.568,17.568,0,0,1,238.87,38.1a11.59,11.59,0,0,1,2.207,7.051V68.937H219.618V56.061a2.3,2.3,0,0,0-.735-1.778,4.158,4.158,0,0,0-1.779-.95,8.1,8.1,0,0,0-2.085-.276,5.712,5.712,0,0,0-3.525.92,2.622,2.622,0,0,0-1.2,2.085,2.683,2.683,0,0,0,1.226,2.115,5.593,5.593,0,0,0,3.494.95,8.754,8.754,0,0,0,2.514-.429,3.484,3.484,0,0,0,2.146-2.208q-1.288,3.006-2.606,6.009t-2.605,6.008a17.665,17.665,0,0,1-4.629,1.563,25.759,25.759,0,0,1-4.813.46,19.978,19.978,0,0,1-5.549-.767,16.082,16.082,0,0,1-4.782-2.237,10.864,10.864,0,0,1-3.342-3.679,10.429,10.429,0,0,1-1.226-5.15,10.309,10.309,0,0,1,.613-3.495,11.245,11.245,0,0,1,1.839-3.249,12.125,12.125,0,0,1,3.1-2.7,15.444,15.444,0,0,1,4.445-1.809,24.345,24.345,0,0,1,5.886-.644,25.389,25.389,0,0,1,4.169.337,20.7,20.7,0,0,1,3.832,1.011,15.176,15.176,0,0,1,3.249,1.656,9.84,9.84,0,0,1,2.36,2.207v-.552a5.641,5.641,0,0,0-.95-3.28,7.343,7.343,0,0,0-2.575-2.268,13.238,13.238,0,0,0-3.739-1.319,22.382,22.382,0,0,0-4.446-.429,29.991,29.991,0,0,0-7.3.92,21.343,21.343,0,0,0-6.438,2.7V33.131a43.525,43.525,0,0,1,9.718-3.035" transform="translate(-41.077 -6.284)" fill="#fff"/>
    <path id="Path_6" data-name="Path 6" d="M50.668,102.809a5.777,5.777,0,0,1-1.142,2.908A6.365,6.365,0,0,1,47,107.671a8.712,8.712,0,0,1-3.582.7,8.486,8.486,0,0,1-3.864-.837A6.233,6.233,0,0,1,36.97,105.2a7.094,7.094,0,0,1,0-6.994,6.233,6.233,0,0,1,2.584-2.336,8.487,8.487,0,0,1,3.864-.837,8.712,8.712,0,0,1,3.582.7,6.4,6.4,0,0,1,2.526,1.945,5.746,5.746,0,0,1,1.142,2.916H47.427a3.2,3.2,0,0,0-.691-1.484,3.379,3.379,0,0,0-1.365-.947,5.3,5.3,0,0,0-1.953-.332,4.773,4.773,0,0,0-2.2.47A3.31,3.31,0,0,0,39.8,99.635a4.547,4.547,0,0,0,0,4.128,3.305,3.305,0,0,0,1.416,1.338,4.773,4.773,0,0,0,2.2.47,5.4,5.4,0,0,0,1.953-.324,3.3,3.3,0,0,0,1.365-.938,3.207,3.207,0,0,0,.691-1.5Z" transform="translate(-7.788 -20.531)" fill="#fff"/>
    <path id="Path_7" data-name="Path 7" d="M70.35,108.37a8.822,8.822,0,0,1-3.949-.837,6.313,6.313,0,0,1-2.636-2.336,6.986,6.986,0,0,1,0-6.994A6.313,6.313,0,0,1,66.4,95.866a9.732,9.732,0,0,1,7.9,0,6.47,6.47,0,0,1,0,11.667,8.826,8.826,0,0,1-3.95.837m0-2.883a5.314,5.314,0,0,0,2.287-.452,3.367,3.367,0,0,0,1.475-1.305,4.217,4.217,0,0,0,0-4.059,3.367,3.367,0,0,0-1.475-1.305,5.961,5.961,0,0,0-4.556,0A3.422,3.422,0,0,0,66.6,99.67a4.162,4.162,0,0,0,0,4.059,3.422,3.422,0,0,0,1.484,1.305,5.264,5.264,0,0,0,2.269.452" transform="translate(-13.574 -20.531)" fill="#fff"/>
    <path id="Path_8" data-name="Path 8" d="M109.392,95.378v12.794h-3.07V96.5l.75.052-5.2,11.617H98.577l-5.2-11.584.751-.068v11.652H91.054V95.378h4.964l4.862,11.191h-1.3l4.845-11.191Z" transform="translate(-19.672 -20.606)" fill="#fff"/>
    <path id="Path_9" data-name="Path 9" d="M131.268,95.378a6.266,6.266,0,0,1,2.7.537,4.018,4.018,0,0,1,1.74,1.511,4.549,4.549,0,0,1,0,4.537,4.018,4.018,0,0,1-1.74,1.511,6.266,6.266,0,0,1-2.7.537h-5.6V101.4H131.1a2.162,2.162,0,0,0,1.45-.452,1.749,1.749,0,0,0,0-2.507,2.158,2.158,0,0,0-1.45-.453h-5.134l1.45-1.5v11.685h-3.224V95.378Z" transform="translate(-26.831 -20.606)" fill="#fff"/>
    <path id="Path_10" data-name="Path 10" d="M155.271,95.378l5.9,12.794h-3.428l-5.067-11.446h.989l-5.049,11.446h-3.429l5.9-12.794ZM148.686,103h8.837V105.6h-8.837Z" transform="translate(-31.368 -20.606)" fill="#fff"/>
    <path id="Path_11" data-name="Path 11" d="M185.575,105.972l-1.04.187V95.377h3.122v12.795H183.6L175.8,97.39l1.041-.187v10.969h-3.122V95.377H177.9Z" transform="translate(-37.532 -20.606)" fill="#fff"/>
    <path id="Path_12" data-name="Path 12" d="M199.682,95.378h3.565l4.777,6.073H206.54l4.776-6.073h3.565l-6.551,8.326-2.081.033Zm6.005,6.6h3.224v6.193h-3.224Z" transform="translate(-43.141 -20.606)" fill="#fff"/>
    <path id="Path_13" data-name="Path 13" d="M94.331,0h13.187V2.849H94.331Zm4.982,1.416h3.224V12.794H99.313Z" transform="translate(-20.38)" fill="#fff"/>
    <path id="Path_14" data-name="Path 14" d="M119.521,0h3.224V12.794h-3.224Zm1.791,4.9h9.74V7.727h-9.74ZM129.688,0H132.9V12.794h-3.208Z" transform="translate(-25.822)" fill="#fff"/>
    <path id="Path_15" data-name="Path 15" d="M149.937,6.4l-.853,5.289-1.348-1.518h9.826v2.626h-11.7l.989-6.4L145.86,0h11.617V2.627h-9.741l1.348-1.518Zm7.08,1.194h-9.263V5.2h9.263Z" transform="translate(-31.513)" fill="#fff"/>
  </g>
</svg>
