<svg xmlns="http://www.w3.org/2000/svg" width="26.701" height="26.007" viewBox="0 0 26.701 26.007">
  <path id="instagram" d="M1623.243,85.014c-3.638,0-4.066-.018-5.482-.078h-.018a10.008,10.008,0,0,1-3.241-.649,6.773,6.773,0,0,1-3.9-3.794,9.215,9.215,0,0,1-.621-3.154c-.083-1.382-.083-1.835-.083-5.354,0-3.577.019-3.988.083-5.347a9.245,9.245,0,0,1,.621-3.151,6.755,6.755,0,0,1,3.9-3.8,9.911,9.911,0,0,1,3.238-.606c1.417-.078,1.881-.078,5.5-.078,3.677,0,4.1.018,5.494.078a9.978,9.978,0,0,1,3.254.606,6.761,6.761,0,0,1,3.9,3.8,9.258,9.258,0,0,1,.625,3.2c.082,1.382.082,1.834.082,5.351,0,3.54-.021,3.994-.082,5.342a9.3,9.3,0,0,1-.624,3.161,6.775,6.775,0,0,1-3.9,3.794,10.027,10.027,0,0,1-3.241.6C1627.334,85.014,1626.868,85.014,1623.243,85.014Zm-.05-23.724c-3.631,0-4.008.017-5.411.078h-.009a7.5,7.5,0,0,0-2.473.449,4.376,4.376,0,0,0-2.549,2.468,7.03,7.03,0,0,0-.462,2.432c-.079,1.4-.079,1.764-.079,5.267,0,3.463.014,3.878.079,5.269a7.106,7.106,0,0,0,.462,2.408,4.378,4.378,0,0,0,2.549,2.467,7.467,7.467,0,0,0,2.473.448c1.436.08,1.813.08,5.42.08,3.637,0,4.013-.017,5.412-.08a7.517,7.517,0,0,0,2.481-.448,4.4,4.4,0,0,0,2.534-2.464,7.059,7.059,0,0,0,.461-2.435h.017c.063-1.378.063-1.746.063-5.269,0-3.548-.017-3.912-.08-5.266a7.1,7.1,0,0,0-.461-2.409,4.394,4.394,0,0,0-2.534-2.468,7.462,7.462,0,0,0-2.477-.449C1627.176,61.29,1626.8,61.29,1623.192,61.29Zm.05,17.355h-.007a6.837,6.837,0,0,1-6.329-4.111,6.515,6.515,0,0,1,1.483-7.267,6.912,6.912,0,0,1,4.85-1.955,6.992,6.992,0,0,1,2.619.507,6.648,6.648,0,0,1,4.233,6.158A6.783,6.783,0,0,1,1623.243,78.645Zm0-11a4.328,4.328,0,1,0,4.447,4.325A4.393,4.393,0,0,0,1623.243,67.649Zm7.121-1.028h0a1.555,1.555,0,1,1,1.6-1.557,1.548,1.548,0,0,1-.47,1.1A1.617,1.617,0,0,1,1630.364,66.621Z" transform="translate(-1609.899 -59.007)" fill="#fff"/>
</svg>
