<svg xmlns="http://www.w3.org/2000/svg" xmlns:xlink="http://www.w3.org/1999/xlink" id="Layer_1" x="0px" y="0px" viewBox="0 0 119.2 46.3" style="enable-background:new 0 0 119.2 46.3;" xml:space="preserve"><style type="text/css">	.st0{fill:#FFFFFF;}</style><g id="Group_63" transform="translate(-1398 -2075.514)">	<g id="Group_62" transform="translate(1398 2075.514)">		<g>			<g id="Group_17">				<path id="Path_34" class="st0" d="M46.3,46.3c9.4,0,18.5-3,25.9-8.6l-1-4.8c-7.5,4.6-16.1,7-24.9,7c-8.8,0-17.4-2.4-24.9-7      l-1,4.8C27.8,43.3,36.9,46.3,46.3,46.3 M80.4,16.4V0.7H74v29.5h6.4v-8.9h1.5c0.6,0,1.2-0.1,1.8-0.3l5.3,9.2h6.5v-0.6l-6.3-10.5      c4.4-2.3,5.4-6.2,5.3-10.9h-6.1c0,4.5-1.3,8.1-6.4,8.1L80.4,16.4z M112.9,13.9c-1.3-0.6-2.7-0.9-4.2-0.9c-3,0.1-5.3,1.7-5.3,6.6      c0,4.5,2.3,6,5.6,6c1.3,0,2.6-0.2,3.9-0.5L112.9,13.9z M119.2,29.1c-2.7,0.4-5.1,1.7-9.4,1.7c-6.7,0.1-12.7-2.6-12.7-11.2      c0-7.7,4.4-11.8,10.6-11.8c4,0.1,7.9,0.9,11.5,2.5L119.2,29.1z M37.3,13.9c-1.3-0.6-2.7-0.9-4.2-0.9c-3,0.1-5.3,1.7-5.3,6.6      c0,4.5,2.3,6,5.6,6c1.3,0,2.6-0.2,3.9-0.5L37.3,13.9z M43.6,29.1c-2.7,0.4-5.1,1.7-9.4,1.7c-6.7,0.1-12.7-2.6-12.7-11.2      c0-7.7,4.4-11.8,10.6-11.8c4,0.1,7.9,0.9,11.5,2.5V29.1z M54.4,25.1c1.2,0.4,2.5,0.6,3.9,0.5c3.3,0,5.6-1.5,5.6-6      c0-5-2.3-6.5-5.3-6.7c-1.5,0-2.9,0.4-4.2,1.1V25.1z M48.2,0.8h6.4v8c1.6-0.7,3.4-1,5.1-1.1c6.1,0,10.6,4.2,10.6,11.8      c0,8.6-6,11.1-12.7,11.2c-3.8,0-6.2-1.3-9.4-1.7L48.2,0.8z M6.6,3.2C6.6,1.4,8,0,9.8,0C9.9,0,9.9,0,10,0c1.8-0.1,3.3,1.2,3.5,3      c0,0.1,0,0.2,0,0.3c0,1.8-1.5,3.2-3.2,3.1c-0.1,0-0.2,0-0.3,0C8.3,6.5,6.8,5.2,6.6,3.4C6.6,3.4,6.6,3.3,6.6,3.2 M18.9,9      L9.3,24.8h9.6v5.5H0v-0.7l9.8-16H0.7V8.2h18.2L18.9,9z"></path>			</g>		</g>	</g></g></svg>